<svg width="28" height="42" viewBox="0 0 28 42" fill="none" xmlns="http://www.w3.org/2000/svg">
<path d="M0 11.9449C1.05405 5.89875 5.62976 1.11696 11.4218 0.00703634V4.28137C7.8573 5.25094 5.04411 8.18078 4.10781 11.8957L0 11.9449ZM11.4439 29.2104C5.6417 28.1091 1.05548 23.3233 0 17.2694L4.09691 17.2764C5.02243 21.0093 7.84159 23.9563 11.4172 24.9305L11.4439 29.2104ZM16.5472 24.9399C20.1288 23.977 22.9577 21.0351 23.8922 17.3026L28 17.2432C26.9535 23.3104 22.3615 28.1079 16.5509 29.2108L16.5472 24.9399ZM23.8854 11.8859C22.9438 8.16513 20.1202 5.23414 16.5468 4.27395L16.5393 0C22.3297 1.09429 26.9115 5.85811 27.9857 11.8906L23.8854 11.8859Z" fill="black"/>
<path d="M2.40557 38.1064C1.75299 38.1064 1.227 38.6496 1.227 39.3235C1.227 39.9971 1.75299 40.5405 2.40557 40.5405C3.05796 40.5405 3.58395 39.9971 3.58395 39.3235C3.58395 38.6496 3.05796 38.1064 2.40557 38.1064ZM4.64556 37.1309V41.496H3.46709V40.9327C3.07745 41.4355 2.65867 41.6366 2.07431 41.6366C0.895744 41.6366 0 40.6509 0 39.3133C0 38.0058 0.886093 37 2.05482 37C2.62943 37 3.04831 37.2113 3.45734 37.7043V37.1309H4.64556Z" fill="black"/>
<path d="M6.95406 37.1312V37.7045C7.32413 37.2216 7.7038 37.0306 8.27846 37.0306C8.77519 37.0306 9.22319 37.2216 9.4958 37.5536C9.74899 37.8554 9.83692 38.157 9.83692 38.7606V41.4963H8.65836V39.1124C8.65836 38.328 8.4343 38.0261 7.85 38.0261C7.24597 38.0261 6.95406 38.4186 6.95406 39.2734V41.4963H5.77551V37.1312H6.95406Z" fill="black"/>
<path d="M14.1217 38.4586C13.7907 38.167 13.518 38.0564 13.1674 38.0564C12.466 38.0564 11.95 38.5994 11.95 39.3238C11.95 40.0577 12.466 40.5909 13.1575 40.5909C13.5375 40.5909 13.8004 40.4803 14.1217 40.1785V41.3754C13.742 41.5565 13.44 41.6268 13.0407 41.6268C11.7358 41.6268 10.7325 40.6411 10.7325 39.3438C10.7325 38.0162 11.7454 37.0002 13.0602 37.0002C13.4693 37.0002 13.7808 37.0808 14.1217 37.2619V38.4586Z" fill="black"/>
<path d="M17.034 37.8852C16.5179 37.8852 16.1574 38.2072 16.0504 38.7604H18.0372C17.9108 38.187 17.56 37.8852 17.034 37.8852ZM16.0115 39.5348C16.0309 40.2992 16.3914 40.7116 17.0438 40.7116C17.4819 40.7116 17.7646 40.5406 18.0372 40.118L19.1282 40.2992C18.7776 41.1842 18.0567 41.6468 17.0729 41.6468C15.69 41.6468 14.7941 40.7518 14.7941 39.3538C14.7941 37.9255 15.651 37.0103 16.9952 37.0103C18.3489 37.0103 19.1672 37.9055 19.1672 39.3738V39.5348H16.0115Z" fill="black"/>
<path d="M21.2605 37.1312V37.8352C21.5623 37.2921 21.9518 37.0406 22.4875 37.0406C22.6823 37.0406 22.7798 37.0608 23.0038 37.1513L22.8384 38.2979C22.6141 38.1672 22.5168 38.1371 22.2731 38.1371C21.5916 38.1371 21.2605 38.5593 21.2605 39.4545V41.4963H20.072V37.1312H21.2605Z" fill="black"/>
<path d="M25.7602 38.1064C25.1076 38.1064 24.5817 38.6496 24.5817 39.3235C24.5817 39.9971 25.1076 40.5405 25.7602 40.5405C26.4127 40.5405 26.9389 39.9971 26.9389 39.3235C26.9389 38.6496 26.4127 38.1064 25.7602 38.1064ZM28.0001 37.1309V41.496H26.8218V40.9327C26.4322 41.4355 26.0135 41.6366 25.4292 41.6366C24.2506 41.6366 23.3545 40.6509 23.3545 39.3133C23.3545 38.0058 24.2409 37 25.4097 37C25.9844 37 26.403 37.2113 26.8123 37.7043V37.1309H28.0001Z" fill="black"/>
</svg>
